<?xml version="1.0" standalone="no"?>
<!DOCTYPE svg PUBLIC "-//W3C//DTD SVG 20010904//EN"
 "http://www.w3.org/TR/2001/REC-SVG-20010904/DTD/svg10.dtd">
<svg version="1.0" 
  xmlns="http://www.w3.org/2000/svg" width="100%" height="100%" viewBox="0 0 474.000000 355.000000" preserveAspectRatio="xMidYMid meet">
  <g transform="translate(0.000000,355.000000) scale(0.100000,-0.100000)" fill="#fff" stroke="none">
    <path d="M2150 3414 c-363 -43 -644 -176 -885 -418 -216 -217 -352 -480 -401
-775 -25 -152 -15 -417 20 -557 45 -181 113 -333 219 -487 53 -78 59 -90 48
-110 -7 -12 -101 -175 -209 -362 l-198 -340 175 -3 c96 -1 178 1 182 5 14 15
1339 2295 1339 2305 0 10 -140 260 -163 293 -12 15 -34 -18 -187 -281 -95
-165 -237 -409 -315 -544 -78 -135 -208 -357 -287 -494 -79 -136 -148 -248
-154 -248 -14 -1 -90 148 -118 232 -58 178 -74 394 -41 566 132 691 854 1089
1510 833 262 -102 483 -311 606 -573 66 -142 90 -248 96 -426 6 -176 -13 -295
-67 -436 -29 -76 -108 -224 -119 -224 -3 1 -150 253 -326 560 -176 308 -322
559 -325 560 -3 0 -42 -72 -87 -159 l-83 -158 526 -907 526 -906 174 0 174 0
-14 23 c-7 12 -100 172 -205 355 l-191 332 66 93 c107 149 192 339 235 527 26
111 36 374 20 491 -86 609 -541 1091 -1141 1210 -91 18 -327 32 -400 23z"/>
  </g>
  <g transform="translate(0.000000,355.000000) scale(0.100000,-0.100000)" fill="#da626a" stroke="none">
    <path d="M1528 755 l-76 -134 61 -39 c146 -92 315 -159 487 -193 93 -19 147
-23 280 -23 177 1 295 19 450 70 88 29 282 123 324 157 l29 24 -73 127 c-40
69 -76 128 -79 131 -4 2 -36 -15 -71 -38 -350 -222 -830 -219 -1181 8 -38 25
-71 45 -72 45 -1 0 -37 -61 -79 -135z"/>
  </g>
</svg>
